<?xml version="1.0" encoding="UTF-8"?>
<svg id="Camada_2" data-name="Camada 2" xmlns="http://www.w3.org/2000/svg" viewBox="0 0 950.66 213.26">
  <defs>
    <style>
      .cls-1 {
        fill: #f2f2f2;
      }
    </style>
  </defs>
  <g id="Camada_1-2" data-name="Camada 1">
    <g>
      <path class="cls-1" d="M576.45,155.76c-14.07,0-26.95-3.38-38.29-10.04-11.33-6.66-20.45-15.97-27.09-27.68-6.64-11.69-10.01-24.93-10.01-39.36s3.37-27.7,10-39.49c6.65-11.8,15.76-21.17,27.1-27.83,11.34-6.66,24.22-10.04,38.29-10.04s26.13,3.38,37.57,10.03c11.42,6.66,20.59,15.92,27.24,27.53,6.65,11.61,10.02,24.62,10.02,38.67v6.81c0,1.69-1.37,3.06-3.06,3.06h-117.1c-1.8,0-3.24,1.55-3.05,3.35,2.17,20.7,15.9,38.5,48.39,39.6,27.74.94,40.14-16.53,43.25-21.82.55-.93,1.55-1.5,2.63-1.5h21.73c1.88,0,3.14,1.96,2.33,3.66-.24.5-.5,1.04-.79,1.63-6.35,12.92-12.6,20.26-23.76,28.97-12.28,9.59-27.55,14.45-45.38,14.45ZM618.88,63.16c2.08,0,3.54-2.02,2.92-4-1.35-4.28-3.33-8.34-5.92-12.12-4.3-6.27-9.92-11.28-16.71-14.89-6.79-3.61-14.43-5.44-22.73-5.44s-16.29,1.83-23.17,5.45c-6.9,3.62-12.62,8.6-17.01,14.8-2.65,3.74-4.73,7.8-6.24,12.12-.69,1.99.78,4.08,2.89,4.08h85.96Z"/>
      <path class="cls-1" d="M248.49,154.45c-14.07,0-26.95-3.38-38.29-10.04-11.33-6.66-20.45-15.97-27.09-27.68-6.64-11.69-10.01-24.93-10.01-39.36s3.37-27.7,10-39.49c6.65-11.8,15.76-21.17,27.1-27.83,11.34-6.66,24.22-10.04,38.29-10.04s26.13,3.38,37.57,10.03c11.42,6.66,20.59,15.92,27.24,27.53,6.65,11.61,10.02,24.62,10.02,38.67v6.81c0,1.69-1.37,3.06-3.06,3.06h-117.1c-1.8,0-3.24,1.55-3.05,3.35,2.17,20.7,15.9,38.5,48.39,39.6,27.74.94,40.14-16.53,43.25-21.82.55-.93,1.55-1.5,2.63-1.5h21.73c1.88,0,3.14,1.96,2.33,3.66-.24.5-.5,1.04-.79,1.63-6.35,12.92-12.6,20.26-23.76,28.97-12.28,9.59-27.55,14.45-45.38,14.45ZM290.93,61.84c2.08,0,3.54-2.02,2.92-4-1.35-4.28-3.33-8.34-5.92-12.12-4.3-6.27-9.92-11.28-16.71-14.89-6.79-3.61-14.43-5.44-22.73-5.44s-16.29,1.83-23.17,5.45c-6.9,3.62-12.62,8.6-17.01,14.8-2.65,3.74-4.73,7.8-6.24,12.12-.69,1.99.78,4.08,2.89,4.08h85.96Z"/>
      <path class="cls-1" d="M457.83,154.35c-2.07,0-3.75-1.68-3.75-3.75v-82.93c0-12.93-3.22-22.88-9.57-29.56-6.38-6.71-14.9-9.98-26.02-9.98-8.23,0-15.63,1.9-22.01,5.63-6.34,3.72-11.36,9.01-14.92,15.71-3.61,6.79-5.44,14.81-5.44,23.85v77.28c0,2.07-1.68,3.75-3.75,3.75h-19.02c-2.07,0-3.75-1.68-3.75-3.75V9.3c0-2.07,1.68-3.75,3.75-3.75h19.02c2.07,0,3.75,1.68,3.75,3.75v11.46c3.65-3.87,8-7.26,13.02-10.13,9.17-5.24,20-7.9,32.17-7.9,17.69,0,32.17,5.81,43.03,17.27,10.79,11.4,16.27,27.16,16.27,46.82v83.78c0,2.07-1.68,3.75-3.75,3.75h-19.02Z"/>
      <path class="cls-1" d="M730.32,160c-12.45,0-23.03-3.33-32.76-6.78-26.65-9.44-31.76-34.44-32.73-43.2-.18-1.64,1.12-3.07,2.77-3.06l20.03.12c1.28,0,2.38.9,2.68,2.15,1.6,6.73,8.99,26.94,40.01,25.37,12-.61,20.91-2.05,26.45-6.1,5.2-3.8,7.73-8.46,7.73-14.24,0-3.5-1.2-6.16-3.76-8.38-3.06-2.64-6.96-4.8-11.61-6.4-4.99-1.72-12.19-3.62-21.41-5.66-11.77-2.46-21.57-5.14-29.09-7.93-7.89-2.93-14.78-7.35-20.46-13.14-6.05-6.16-9.12-14.52-9.12-24.85,0-7.45,2.35-14.55,6.99-21.08,4.56-6.42,11.21-11.65,19.78-15.52,8.43-3.81,18.61-5.74,30.26-5.74,17.1,0,31.01,4.47,41.75,12.79,12.29,9.52,17.04,24.32,18.62,30.94.41,1.74-.91,3.4-2.69,3.4l-20.99.05c-1.22,0-2.3-.79-2.65-1.96-1.59-5.22-8.22-19.1-34.03-19.82-6.95-.19-12.84.94-17.49,2.8-4.49,1.8-7.91,4.09-10.17,6.82-2.1,2.54-3.12,4.93-3.12,7.33,0,3.5,1.19,6.16,3.76,8.38,3.04,2.63,6.92,4.73,11.54,6.24,5.04,1.65,12.17,3.51,21.21,5.54,11.94,2.46,21.83,5.14,29.35,7.93,7.9,2.94,14.83,7.41,20.6,13.28,6.14,6.26,9.26,14.66,9.26,24.99,0,8.36-2.43,16.15-7.24,23.15-4.76,6.94-11.87,12.52-21.13,16.59-9.07,3.98-19.95,6-32.34,6Z"/>
      <path class="cls-1" d="M864.4,209.43l15.66-51.24c.58-1.91-.84-3.83-2.84-3.83h-23.4c-1.33,0-2.5-.88-2.86-2.16l-40.17-142.87c-.53-1.89.89-3.77,2.86-3.77h21.19c1.35,0,2.53.91,2.87,2.22l31.04,118.97c.34,1.31,1.52,2.22,2.87,2.22h14.53c1.31,0,2.46-.85,2.84-2.1l36.28-119.2c.38-1.25,1.53-2.1,2.84-2.1h19.58c1.99,0,3.41,1.92,2.84,3.82l-60.51,201.77c-.38,1.25-1.53,2.11-2.84,2.11h-19.94c-1.99,0-3.42-1.93-2.84-3.83Z"/>
      <path class="cls-1" d="M14.14,213.26c-2.03,0-3.67-1.64-3.67-3.67v-18.06c0-2.03,1.64-3.67,3.67-3.67h106.44v21.73c0,2.03-1.64,3.67-3.67,3.67H14.14Z"/>
      <path class="cls-1" d="M120.58,187.86v-51.07c-.47.51-.97,1.04-1.48,1.57-4.86,5.06-11.31,9.5-19.19,13.18-7.97,3.73-17.55,5.62-28.48,5.62-12.98,0-25.08-3.39-35.96-10.09-10.85-6.67-19.58-15.99-25.93-27.71C3.21,107.71,0,94.49,0,80.09s3.21-27.65,9.54-39.42c6.35-11.81,15.08-21.19,25.93-27.86,10.89-6.69,22.99-10.09,35.96-10.09,10.94,0,20.53,1.95,28.52,5.78,7.85,3.78,14.28,8.2,19.12,13.14.52.54,1.03,1.06,1.51,1.58V7.78c0-1.23,1-2.23,2.23-2.23h21.26c1.52,0,2.76,1.23,2.76,2.76v176.8c0,1.52-1.24,2.76-2.76,2.76h-23.49ZM73.41,28.12c-8.58,0-16.59,2.22-23.79,6.59-7.21,4.38-12.97,10.53-17.1,18.29-4.17,7.81-6.28,16.93-6.28,27.1s2.11,19.28,6.28,27.1c4.13,7.75,9.88,13.84,17.07,18.12,7.21,4.29,15.22,6.47,23.82,6.47s16.61-2.17,23.82-6.46c7.2-4.28,12.94-10.38,17.07-18.12,4.17-7.81,6.28-16.93,6.28-27.1s-2.11-19.28-6.28-27.1c-4.14-7.75-9.89-13.91-17.1-18.29-7.2-4.37-15.2-6.59-23.79-6.59Z"/>
    </g>
  </g>
</svg>